<?xml version="1.0" encoding="utf-8"?>
<!-- Generator: Adobe Illustrator 18.0.0, SVG Export Plug-In . SVG Version: 6.00 Build 0)  -->
<!DOCTYPE svg PUBLIC "-//W3C//DTD SVG 1.1//EN" "http://www.w3.org/Graphics/SVG/1.1/DTD/svg11.dtd">
<svg version="1.1" id="Layer_1" xmlns="http://www.w3.org/2000/svg" xmlns:xlink="http://www.w3.org/1999/xlink" x="0px" y="0px"
	 width="20.8447819px" height="33px" viewBox="0 0 20.8447819 33" enable-background="new 0 0 20.8447819 33" xml:space="preserve">
<g>
	<g>
		<path fill="#FFFFFF" d="M12.7756186,19.9633846c0-3.891531,0-7.7682018,0-11.6448727c0.3306227,0,0.648571,0,0.9808874,0
			c0,3.2533636,0,6.498167,0,9.7476635c0.7604284,0,1.5073137,0,2.2618389,0
			c0.0025616-0.0483608,0.0050774-0.0899429,0.0050774-0.1310921c0.0008698-3.3976212,0.0102005-6.7956343-0.0042095-10.1936474
			c-0.0059471-1.2844172-0.5985241-2.2633719-1.6980829-2.9219184c-0.5400562-0.3233199-1.133502-0.4659266-1.7786446-0.4370317
			c-0.0890255,0.6296945-0.3043623,1.2059007-0.6654997,1.7244473c-0.3620052,0.519372-0.8231926,0.9271612-1.383563,1.2229333
			C9.933876,7.62603,9.3362207,7.7741117,8.7046204,7.7758064C7.8814278,7.7779355,7.1269078,7.5466881,6.4538069,7.0688992
			c-0.9249368-0.6585898-1.454793-1.5649381-1.6235061-2.6796346C4.4386435,4.3518968,3.9460733,4.4308476,3.5170925,4.5954838
			C2.3353283,5.0478106,1.3357714,6.2189503,1.3408988,7.8725719c0.0127125,3.341135,0.004205,6.6827488,0.004205,10.0238838
			c0,0.0551834,0,0.1094971,0,0.1655064c0.7689359,0,1.5183825,0,2.2805035,0c0-3.2554502,0-6.5011234,0-9.7421465
			c0.331491,0,0.6485713,0,0.9808872,0c0,3.886838,0,7.7622061,0,11.643569
			C7.3329067,19.9633846,10.0423908,19.9633846,12.7756186,19.9633846z"/>
		<path fill="#754C24" d="M14.3787727,29.8599567c0.0033855-0.0339355,0.0067711-0.0517502,0.0067711-0.0704346
			c0-2.412714,0-4.82547,0.0025616-7.2373161c0-0.0865974-0.0390224-0.1094971-0.1102514-0.1307011
			c-0.521348-0.1578579-0.927454-0.4701843-1.2046442-0.9411526c-0.0949726-0.1642456-0.1627722-0.3450012-0.2450266-0.5228043
			c-2.7611809,0-5.5283079,0-8.2996893,0c-0.0118499,0.0378017-0.0245676,0.072998-0.0364609,0.1078033
			c-0.2373438,0.6700172-0.6900675,1.1236038-1.3640745,1.3451176c-0.1178038,0.0381927-0.1474934,0.08951-0.1474934,0.2053509
			c0.0033855,2.3601379,0.0033855,4.7206669,0.0033855,7.0816288c0,0.0504913,0,0.1005459,0,0.1582928
			c1.7438762,0,3.4724739,0,5.213789,0c0-2.5086536,0-5.008791,0-7.5131874c0.3306665,0,0.6477089,0,0.984273,0
			c0,2.5107841,0,5.013876,0,7.5174026C10.9232273,29.8599567,12.6459217,29.8599567,14.3787727,29.8599567z"/>
		<path fill="#FFD8BD" d="M11.6133442,3.8974407c0.0576372-0.7378879-0.3416538-1.9090277-1.4471531-2.5565372
			C9.1336012,0.7374969,7.8263454,0.8189679,6.8819194,1.5649378C6.1324782,2.1564388,5.7636962,2.9397333,5.739953,3.9055226
			c0.8384724,0,1.6506405,0,2.4831228,0c0,0.2465422,0,0.483742,0,0.7205074c0.3196411,0,0.6188812,0,0.9359617,0
			c0-0.2444129,0-0.4811783,0-0.7285893C9.9898272,3.8974407,10.8011703,3.8974407,11.6133442,3.8974407z"/>
		<path fill="#754C24" d="M8.1891756,30.8503399c-0.0542574,0-0.0957966,0-0.1373367,0c-2.1465526,0-4.2922812,0-6.4379659,0
			c-0.3662591,0-0.6231353,0.2435875-0.6273457,0.5830269c-0.0051219,0.3212357,0.2814495,0.587286,0.6247903,0.5855923
			c2.141469-0.0085144,4.2829437-0.0042572,6.4244175-0.0042572c0.0491791,0,0.0991831,0,0.1534405,0
			C8.1891756,31.620512,8.1891756,31.2449627,8.1891756,30.8503399z"/>
		<path fill="#754C24" d="M9.184473,32.0147018c0.0966215,0,0.1813936,0,0.264473,0
			c2.1024952,0,4.2058163-0.0008698,6.3100052,0.0016937c0.1627722,0,0.306879-0.0339355,0.4289436-0.1429977
			c0.1865082-0.1658974,0.2484055-0.4145679,0.1636391-0.6432953c-0.0873375-0.2320728-0.3051929-0.3788948-0.5739622-0.3788948
			c-2.1592703-0.0008678-4.3193665-0.0008678-6.4786806,0c-0.0364113,0-0.0728731,0.0046501-0.114418,0.0084743
			C9.184473,31.2424431,9.184473,31.6175137,9.184473,32.0147018z"/>
		<path fill="#FFD8BD" d="M1.3586953,19.0247536c0,0.299551-0.0033911,0.5898056,0.0016873,0.8804932
			c0.0033857,0.2444134-0.0076394,0.492651,0.0322073,0.7315445c0.0907184,0.54566,0.636678,0.9525814,1.1783838,0.9046535
			c0.595144-0.052618,1.0478678-0.5312767,1.0478678-1.1109161c0-0.4183483,0-0.8376083,0-1.2568245
			c0-0.0492306,0-0.0984612,0-0.1489506C2.8558466,19.0247536,2.1149077,19.0247536,1.3586953,19.0247536z"/>
		<path fill="#FFD8BD" d="M13.7615843,19.0226231c-0.0025616,0.057703-0.0059471,0.1043701-0.0059471,0.1502113
			c-0.000824,0.4239101-0.000824,0.8469505,0.0008688,1.2708607c0,0.0657845,0.000824,0.1319599,0.01441,0.1964855
			c0.1127253,0.5346241,0.6027784,0.9207745,1.141923,0.9025249c0.5502138-0.0190754,1.0343199-0.4332523,1.0775585-0.9848652
			c0.0398397-0.5002956,0.0144053-1.0048084,0.0169287-1.5080605c0-0.0067768-0.0110321-0.0144253-0.0220566-0.0271568
			C15.2527943,19.0226231,14.5152407,19.0226231,13.7615843,19.0226231z"/>
		<path fill="#FFFFFF" d="M7.2473106,6.1578584c0.963047,0,1.918498,0,2.8713884,0c0-0.23594,0-0.4591489,0-0.6848779
			c-0.9647341,0-1.9151125,0-2.8713884,0C7.2473106,5.7067914,7.2473106,5.9304347,7.2473106,6.1578584z"/>
		<path d="M17.3756485,31.2462234c0,0.1320038,0,0.2643566,0,0.3959274
			c-0.0102005,0.0292854-0.0246124,0.0581379-0.0305157,0.0886841C17.1865711,32.4933586,16.5643044,33,15.7835188,33
			c-4.7398834,0-9.4806347,0-14.2196922-0.0008698c-0.7180641,0-1.3284382-0.4739647-1.5115677-1.1711388
			c-0.0127179-0.0530548-0.0330699-0.1043701-0.0491789-0.1569901c0-0.1604214,0-0.3207989,0-0.4811783
			c0.0110251-0.0288506,0.0254359-0.057703,0.0322072-0.0874233c0.1585618-0.6725807,0.6672358-1.138464,1.3539175-1.2195015
			c0.1975403-0.0237675,0.4001591-0.0034313,0.6069883-0.0034313c0-2.4933167,0-4.9561291,0-7.4062119
			c-0.1788758-0.0776463-0.3611373-0.1357841-0.5222166-0.2291183c-0.7324749-0.4311218-1.0834552-1.0811939-1.0800695-1.9294491
			c0.0042538-1.809742,0.0076394-3.6186581,0.0085075-5.4275742c0.0025176-2.3363266-0.0017363-4.673522,0.0042104-7.009892
			c0.0008681-0.3050709,0.026304-0.6127052,0.0780004-0.9131269c0.3120018-1.816998,1.8277799-3.2597075,3.6530423-3.4884346
			c0.2263618-0.0288515,0.456109-0.03689,0.6901107-0.0547051c0.00421-0.0305896,0.0084639-0.0577464,0.0127177-0.0849035
			c0.3162179-1.7006793,1.3046951-2.7823095,2.9739623-3.2350709C7.9848638,0.055183,8.1620464,0.0339354,8.336669,0
			c0.234869,0,0.47052,0,0.7053461,0C9.0683193,0.009342,9.092062,0.0228988,9.1183224,0.0254624
			c1.6336689,0.1862752,2.9604139,1.3578495,3.3427773,2.9558537c0.0364609,0.149385,0.0627213,0.3004215,0.0873327,0.4166968
			c0.3865728,0.0534883,0.7553492,0.072998,1.1097155,0.1587272c1.9659843,0.473531,3.3037548,2.1895049,3.3071842,4.2173719
			c0.0059032,2.506525,0.0118504,5.0134411,0.0152359,7.5195312c0.0008678,1.6964655,0.0067711,3.39293-0.0033855,5.0893946
			c-0.0059471,0.8923569-0.4281139,1.5411263-1.2284317,1.9366188c-0.1195402,0.0598316-0.2509298,0.0975914-0.3687773,0.1434326
			c0,2.470417,0,4.9332294,0,7.4023857c0.1568317,0,0.3018074-0.0012589,0.4476519,0.0004349
			c0.6680164,0.0080395,1.2623253,0.4480686,1.4649487,1.0850201C17.3239079,31.048521,17.3476505,31.1478062,17.3756485,31.2462234
			z M12.7756186,19.9633846c0-3.891531,0-7.7682018,0-11.6448727c0.3306227,0,0.648571,0,0.9808874,0
			c0,3.2533636,0,6.498167,0,9.7476635c0.7604284,0,1.5073137,0,2.2618389,0
			c0.0025616-0.0483608,0.0050774-0.0899429,0.0050774-0.1310921c0.0008698-3.3976212,0.0102005-6.7956343-0.0042095-10.1936474
			c-0.0059471-1.2844172-0.5985241-2.2633719-1.6980829-2.9219184c-0.5400562-0.3233199-1.133502-0.4659266-1.7786446-0.4370317
			c-0.0890255,0.6296945-0.3043623,1.2059007-0.6654997,1.7244473c-0.3620052,0.519372-0.8231926,0.9271612-1.383563,1.2229333
			C9.933876,7.62603,9.3362207,7.7741117,8.7046204,7.7758064C7.8814278,7.7779355,7.1269078,7.5466881,6.4538069,7.0688992
			c-0.9249368-0.6585898-1.454793-1.5649381-1.6235061-2.6796346C4.4386435,4.3518968,3.9460733,4.4308476,3.5170925,4.5954838
			C2.3353283,5.0478106,1.3357714,6.2189503,1.3408988,7.8725719c0.0127125,3.341135,0.004205,6.6827488,0.004205,10.0238838
			c0,0.0551834,0,0.1094971,0,0.1655064c0.7689359,0,1.5183825,0,2.2805035,0c0-3.2554502,0-6.5011234,0-9.7421465
			c0.331491,0,0.6485713,0,0.9808872,0c0,3.886838,0,7.7622061,0,11.643569
			C7.3329067,19.9633846,10.0423908,19.9633846,12.7756186,19.9633846z M14.3787727,29.8599567
			c0.0033855-0.0339355,0.0067711-0.0517502,0.0067711-0.0704346c0-2.412714,0-4.82547,0.0025616-7.2373161
			c0-0.0865974-0.0390224-0.1094971-0.1102514-0.1307011c-0.521348-0.1578579-0.927454-0.4701843-1.2046442-0.9411526
			c-0.0949726-0.1642456-0.1627722-0.3450012-0.2450266-0.5228043c-2.7611809,0-5.5283079,0-8.2996893,0
			c-0.0118499,0.0378017-0.0245676,0.072998-0.0364609,0.1078033c-0.2373438,0.6700172-0.6900675,1.1236038-1.3640745,1.3451176
			c-0.1178038,0.0381927-0.1474934,0.08951-0.1474934,0.2053509c0.0033855,2.3601379,0.0033855,4.7206669,0.0033855,7.0816288
			c0,0.0504913,0,0.1005459,0,0.1582928c1.7438762,0,3.4724739,0,5.213789,0c0-2.5086536,0-5.008791,0-7.5131874
			c0.3306665,0,0.6477089,0,0.984273,0c0,2.5107841,0,5.013876,0,7.5174026
			C10.9232273,29.8599567,12.6459217,29.8599567,14.3787727,29.8599567z M11.6133442,3.8974407
			c0.0576372-0.7378879-0.3416538-1.9090277-1.4471531-2.5565372C9.1336012,0.7374969,7.8263454,0.8189679,6.8819194,1.5649378
			C6.1324782,2.1564388,5.7636962,2.9397333,5.739953,3.9055226c0.8384724,0,1.6506405,0,2.4831228,0
			c0,0.2465422,0,0.483742,0,0.7205074c0.3196411,0,0.6188812,0,0.9359617,0c0-0.2444129,0-0.4811783,0-0.7285893
			C9.9898272,3.8974407,10.8011703,3.8974407,11.6133442,3.8974407z M8.1891756,30.8503399c-0.0542574,0-0.0957966,0-0.1373367,0
			c-2.1465526,0-4.2922812,0-6.4379659,0c-0.3662591,0-0.6231353,0.2435875-0.6273457,0.5830269
			c-0.0051219,0.3212357,0.2814495,0.587286,0.6247903,0.5855923c2.141469-0.0085144,4.2829437-0.0042572,6.4244175-0.0042572
			c0.0491791,0,0.0991831,0,0.1534405,0C8.1891756,31.620512,8.1891756,31.2449627,8.1891756,30.8503399z M9.184473,32.0147018
			c0.0966215,0,0.1813936,0,0.264473,0c2.1024952,0,4.2058163-0.0008698,6.3100052,0.0016937
			c0.1627722,0,0.306879-0.0339355,0.4289436-0.1429977c0.1865082-0.1658974,0.2484055-0.4145679,0.1636391-0.6432953
			c-0.0873375-0.2320728-0.3051929-0.3788948-0.5739622-0.3788948c-2.1592703-0.0008678-4.3193665-0.0008678-6.4786806,0
			c-0.0364113,0-0.0728731,0.0046501-0.114418,0.0084743C9.184473,31.2424431,9.184473,31.6175137,9.184473,32.0147018z
			 M1.3586953,19.0247536c0,0.299551-0.0033911,0.5898056,0.0016873,0.8804932
			c0.0033857,0.2444134-0.0076394,0.492651,0.0322073,0.7315445c0.0907184,0.54566,0.636678,0.9525814,1.1783838,0.9046535
			c0.595144-0.052618,1.0478678-0.5312767,1.0478678-1.1109161c0-0.4183483,0-0.8376083,0-1.2568245
			c0-0.0492306,0-0.0984612,0-0.1489506C2.8558466,19.0247536,2.1149077,19.0247536,1.3586953,19.0247536z M13.7615843,19.0226231
			c-0.0025616,0.057703-0.0059471,0.1043701-0.0059471,0.1502113c-0.000824,0.4239101-0.000824,0.8469505,0.0008688,1.2708607
			c0,0.0657845,0.000824,0.1319599,0.01441,0.1964855c0.1127253,0.5346241,0.6027784,0.9207745,1.141923,0.9025249
			c0.5502138-0.0190754,1.0343199-0.4332523,1.0775585-0.9848652c0.0398397-0.5002956,0.0144053-1.0048084,0.0169287-1.5080605
			c0-0.0067768-0.0110321-0.0144253-0.0220566-0.0271568C15.2527943,19.0226231,14.5152407,19.0226231,13.7615843,19.0226231z
			 M7.2473106,6.1578584c0.963047,0,1.918498,0,2.8713884,0c0-0.23594,0-0.4591489,0-0.6848779
			c-0.9647341,0-1.9151125,0-2.8713884,0C7.2473106,5.7067914,7.2473106,5.9304347,7.2473106,6.1578584z"/>
		<path fill-rule="evenodd" clip-rule="evenodd" d="M8.6919031,12.9471054
			c0.3764162,0.0016947,0.6807785,0.3118925,0.6739635,0.6878319c-0.0067711,0.3780689-0.3111334,0.6734066-0.6909351,0.6687574
			c-0.3729877-0.0038233-0.6646318-0.3025503-0.6638069-0.6793594C8.0128603,13.243269,8.3112764,12.9454107,8.6919031,12.9471054z"
			/>
		<path fill-rule="evenodd" clip-rule="evenodd" d="M8.6876488,10.6650496
			C8.307847,10.6667442,8.0111246,10.368886,8.0111246,9.9852991c0-0.3793726,0.3018446-0.6789246,0.6807785-0.6772299
			C9.0606794,9.3101978,9.363349,9.6127481,9.3658667,9.9831696C9.3684273,10.3604136,9.0666265,10.6642237,8.6876488,10.6650496z"
			/>
		<path fill-rule="evenodd" clip-rule="evenodd" d="M8.0111246,17.2625027
			c0.0008678-0.3818913,0.3009768-0.6806183,0.6807785-0.6772289c0.3704748,0.0033875,0.6688852,0.3008556,0.6739635,0.6721458
			c0.0051279,0.3746796-0.3001089,0.6831818-0.6773491,0.6848774C8.3087158,17.9431229,8.0111246,17.6452637,8.0111246,17.2625027z"
			/>
		<polygon fill-rule="evenodd" clip-rule="evenodd" points="13.2673206,10.8602753 13.2673206,9.870718 11.4895449,9.870718 
			10.5010614,9.870718 10.5010614,10.8602753 10.5010614,13.4825974 10.5010614,13.762641 10.5010614,14.4712858 
			13.2673206,14.4712858 13.2673206,13.4825974 11.4895449,13.4825974 11.4895449,10.8602753 		"/>
	</g>
	<g>
		<circle fill="#39B54A" cx="14.2354078" cy="16.6318359" r="6.6063137"/>
		<path fill="#FFFFFF" d="M17.1419907,13.7256298l-4.2553902,4.2562714l-1.5578566-1.5578136
			c-0.2864056-0.2864494-0.7509174-0.2864494-1.0373678,0c-0.2873306,0.2868919-0.2873306,0.7517986-0.0008802,1.03825
			l2.07654,2.07654c0.2864552,0.2864056,0.7517986,0.2864056,1.0382538-0.0004406l0.5186787-0.519125l4.2562723-4.2553902
			c0.2864494-0.2873306,0.2864494-0.7518425,0-1.0382919C17.8937893,13.4391794,17.4292774,13.4391794,17.1419907,13.7256298z"/>
	</g>
</g>
</svg>
